{"title":"Water (1985) Michael Caine DVDrip Xvid","uid":6169355,"size":736643119,"categoryP":"video","categoryS":"movies","magnet":"?xt=urn:btih:66d98dba70239b1afb0ad8fbc81b5319362f7802&amp;dn=Water+%281985%29+Michael+Caine+DVDrip+Xvid&amp;tr=udp%3A%2F%2Ftracker.openbittorrent.com%3A80&amp;tr=udp%3A%2F%2Fopen.demonii.com%3A1337&amp;tr=udp%3A%2F%2Ftracker.coppersurfer.tk%3A6969&amp;tr=udp%3A%2F%2Fexodus.desync.com%3A6969","seeders":6,"leechers":0,"uploader":"puppyup","files":-1,"time":1297509899,"description":"Water (1985/I)\n &lt;a href=&quot;\nhttp://www.imdb.com/title/tt0090297/&quot; rel=&quot;nofollow&quot; target=&quot;_NEW&quot;&gt;\nhttp://www.imdb.com/title/tt0090297/&lt;/a&gt;\n\nGenre: Comedy\n\nDirector: Dick Clement\nCounty: UK\nLanguage: English\n\nStarring: Michael Caine, Valerie Perrine, Brenda Vaccaro\n\n\nPlot:\nFarce about a British diplomat to a West Indian island nation who finds his idyllic existance thrown into chaos when a large American drilling company finds a huge source of natural mineral water there. \n\n\nFormat                           : AVI\nFile size                        : 703 MiB\nDuration                         : 1h 33mn\nOverall bit rate                 : 1 050 Kbps\n\nVideo\nCodec ID                         : XVID\nDuration                         : 1h 33mn\nBit rate                         : 912 Kbps\nWidth                            : 640 pixels\nHeight                           : 352 pixels\nDisplay aspect ratio             : 16:9\nFrame rate                       : 25.000 fps\nColor space                      : YUV\nChroma subsampling               : 4:2:0\nBit depth                        : 8 bits\nScan type                        : Progressive\nCompression mode                 : Lossy\nBits/(Pixel*Frame)               : 0.162\nStream size                      : 610 MiB (87%)\n\nAudio\nCodec ID/Hint                    : MP3\nDuration                         : 1h 33mn\nBit rate mode                    : Constant\nBit rate                         : 128 Kbps\nChannel(s)                       : 2 channels\nSampling rate                    : 48.0 KHz\nCompression mode                 : Lossy\nStream size                      : 85.7 MiB (12%)\n &lt;a href=&quot;\nhttp://leetleech.org/images/29228906394939836594.jpg&quot; rel=&quot;nofollow&quot; target=&quot;_NEW&quot;&gt;\nhttp://leetleech.org/images/29228906394939836594.jpg&lt;/a&gt; &lt;a href=&quot;\nhttp://leetleech.org/images/23939437308123265082.jpg&quot; rel=&quot;nofollow&quot; target=&quot;_NEW&quot;&gt;\nhttp://leetleech.org/images/23939437308123265082.jpg&lt;/a&gt; &lt;a href=&quot;\nhttp://leetleech.org/images/40085151113310643342.jpg&quot; rel=&quot;nofollow&quot; target=&quot;_NEW&quot;&gt;\nhttp://leetleech.org/images/40085151113310643342.jpg&lt;/a&gt; &lt;a href=&quot;\nhttp://leetleech.org/images/61940984411263963515.jpg&quot; rel=&quot;nofollow&quot; target=&quot;_NEW&quot;&gt;\nhttp://leetleech.org/images/61940984411263963515.jpg&lt;/a&gt; &lt;a href=&quot;\nhttp://leetleech.org/images/01755040594036838961.jpg&quot; rel=&quot;nofollow&quot; target=&quot;_NEW&quot;&gt;\nhttp://leetleech.org/images/01755040594036838961.jpg&lt;/a&gt; &lt;a href=&quot;\nhttp://leetleech.org/images/09589349261414687408.jpg&quot; rel=&quot;nofollow&quot; target=&quot;_NEW&quot;&gt;\nhttp://leetleech.org/images/09589349261414687408.jpg&lt;/a&gt;\n","torrent":{"xt":"urn:btih:66d98dba70239b1afb0ad8fbc81b5319362f7802","amp;dn":"Water+%281985%29+Michael+Caine+DVDrip+Xvid","amp;tr":["udp%3A%2F%2Ftracker.openbittorrent.com%3A80","udp%3A%2F%2Fopen.demonii.com%3A1337","udp%3A%2F%2Ftracker.coppersurfer.tk%3A6969","udp%3A%2F%2Fexodus.desync.com%3A6969"],"infoHash":"66d98dba70239b1afb0ad8fbc81b5319362f7802","infoHashBuffer":{"type":"Buffer","data":[102,217,141,186,112,35,155,26,251,10,216,251,200,27,83,25,54,47,120,2]},"announce":[],"urlList":[]}}